# xmcd
#
# Track frame offsets:
#   150
#   23122
#   46532
#   63345
#   85561
#   108787
#   133337
#   155914
#   177644
#   197762
#   226227
#   243019
#   263434
#
# Disc length: 3795 seconds
#
# Revision: 0
# Processed by: cddbd v1.5.1PL2 Copyright (c) Steve Scherf et al.
# Submitted via: uFREEDB ActiveX Control 1.5
#
DISCID=9e0ed10d
DTITLE=Coalo Zamorano - Cosas Poderosas
DYEAR=2004
DGENRE=Gospel
TTITLE0=Eres Fiel
TTITLE1=Digno de Gloria, Digno de Honra
TTITLE2=Cosas Poderosas
TTITLE3=Mi Vida Eres Tu
TTITLE4=Quién Como El Senor?
TTITLE5=Con Humildad
TTITLE6=Solo Tú
TTITLE7=Mas de Ti
TTITLE8=Por Quien Eres Tú
TTITLE9=Venimos a Adorarte
TTITLE10=Com Humildade
TTITLE11=Por Quem Tu És
TTITLE12=Mais de Ti
EXTD=
EXTT0=
EXTT1=
EXTT2=
EXTT3=
EXTT4=
EXTT5=
EXTT6=
EXTT7=
EXTT8=
EXTT9=
EXTT10=
EXTT11=
EXTT12=
PLAYORDER=
